<mxfile host="Electron" agent="Mozilla/5.0 (Windows NT 10.0; Win64; x64) AppleWebKit/537.36 (KHTML, like Gecko) draw.io/24.7.5 Chrome/126.0.6478.183 Electron/31.3.0 Safari/537.36" version="24.7.5">
  <diagram id="C5RBs43oDa-KdzZeNtuy" name="Page-1">
    <mxGraphModel dx="1044" dy="1025" grid="1" gridSize="10" guides="1" tooltips="1" connect="1" arrows="1" fold="1" page="1" pageScale="1" pageWidth="827" pageHeight="1169" math="0" shadow="0">
      <root>
        <mxCell id="WIyWlLk6GJQsqaUBKTNV-0" />
        <mxCell id="WIyWlLk6GJQsqaUBKTNV-1" parent="WIyWlLk6GJQsqaUBKTNV-0" />
        <mxCell id="ZnUw0Ei_6aZEV_6Elj-X-1" value="&lt;b&gt;Course&lt;/b&gt;" style="swimlane;fontStyle=0;childLayout=stackLayout;horizontal=1;startSize=26;fillColor=none;horizontalStack=0;resizeParent=1;resizeParentMax=0;resizeLast=0;collapsible=1;marginBottom=0;whiteSpace=wrap;html=1;" parent="WIyWlLk6GJQsqaUBKTNV-1" vertex="1">
          <mxGeometry x="19" y="650" width="190" height="104" as="geometry" />
        </mxCell>
        <mxCell id="ZnUw0Ei_6aZEV_6Elj-X-2" value="+ CourseName: string" style="text;strokeColor=none;fillColor=none;align=left;verticalAlign=top;spacingLeft=4;spacingRight=4;overflow=hidden;rotatable=0;points=[[0,0.5],[1,0.5]];portConstraint=eastwest;whiteSpace=wrap;html=1;" parent="ZnUw0Ei_6aZEV_6Elj-X-1" vertex="1">
          <mxGeometry y="26" width="190" height="26" as="geometry" />
        </mxCell>
        <mxCell id="ZnUw0Ei_6aZEV_6Elj-X-3" value="+ CourseId: Int" style="text;strokeColor=none;fillColor=none;align=left;verticalAlign=top;spacingLeft=4;spacingRight=4;overflow=hidden;rotatable=0;points=[[0,0.5],[1,0.5]];portConstraint=eastwest;whiteSpace=wrap;html=1;" parent="ZnUw0Ei_6aZEV_6Elj-X-1" vertex="1">
          <mxGeometry y="52" width="190" height="26" as="geometry" />
        </mxCell>
        <mxCell id="ZnUw0Ei_6aZEV_6Elj-X-85" value="+ Description: string" style="text;strokeColor=none;fillColor=none;align=left;verticalAlign=top;spacingLeft=4;spacingRight=4;overflow=hidden;rotatable=0;points=[[0,0.5],[1,0.5]];portConstraint=eastwest;whiteSpace=wrap;html=1;" parent="ZnUw0Ei_6aZEV_6Elj-X-1" vertex="1">
          <mxGeometry y="78" width="190" height="26" as="geometry" />
        </mxCell>
        <mxCell id="ZnUw0Ei_6aZEV_6Elj-X-5" value="&lt;b&gt;Student&lt;/b&gt;" style="swimlane;fontStyle=0;childLayout=stackLayout;horizontal=1;startSize=26;fillColor=none;horizontalStack=0;resizeParent=1;resizeParentMax=0;resizeLast=0;collapsible=1;marginBottom=0;whiteSpace=wrap;html=1;" parent="WIyWlLk6GJQsqaUBKTNV-1" vertex="1">
          <mxGeometry x="379" y="540" width="170" height="60" as="geometry" />
        </mxCell>
        <mxCell id="ZnUw0Ei_6aZEV_6Elj-X-31" value="" style="line;strokeWidth=1;fillColor=none;align=left;verticalAlign=middle;spacingTop=-1;spacingLeft=3;spacingRight=3;rotatable=0;labelPosition=right;points=[];portConstraint=eastwest;strokeColor=inherit;" parent="ZnUw0Ei_6aZEV_6Elj-X-5" vertex="1">
          <mxGeometry y="26" width="170" height="8" as="geometry" />
        </mxCell>
        <mxCell id="ZnUw0Ei_6aZEV_6Elj-X-8" value="+ TakeTest(Test: test): void" style="text;strokeColor=none;fillColor=none;align=left;verticalAlign=top;spacingLeft=4;spacingRight=4;overflow=hidden;rotatable=0;points=[[0,0.5],[1,0.5]];portConstraint=eastwest;whiteSpace=wrap;html=1;" parent="ZnUw0Ei_6aZEV_6Elj-X-5" vertex="1">
          <mxGeometry y="34" width="170" height="26" as="geometry" />
        </mxCell>
        <mxCell id="ZnUw0Ei_6aZEV_6Elj-X-9" value="&lt;b&gt;Teacher&lt;/b&gt;" style="swimlane;fontStyle=0;childLayout=stackLayout;horizontal=1;startSize=26;fillColor=none;horizontalStack=0;resizeParent=1;resizeParentMax=0;resizeLast=0;collapsible=1;marginBottom=0;whiteSpace=wrap;html=1;" parent="WIyWlLk6GJQsqaUBKTNV-1" vertex="1">
          <mxGeometry x="580" y="540" width="190" height="110" as="geometry" />
        </mxCell>
        <mxCell id="ZnUw0Ei_6aZEV_6Elj-X-34" value="" style="line;strokeWidth=1;fillColor=none;align=left;verticalAlign=middle;spacingTop=-1;spacingLeft=3;spacingRight=3;rotatable=0;labelPosition=right;points=[];portConstraint=eastwest;strokeColor=inherit;" parent="ZnUw0Ei_6aZEV_6Elj-X-9" vertex="1">
          <mxGeometry y="26" width="190" height="8" as="geometry" />
        </mxCell>
        <mxCell id="ZnUw0Ei_6aZEV_6Elj-X-12" value="+ CreateCourse(string: title, string description): Course" style="text;strokeColor=none;fillColor=none;align=left;verticalAlign=top;spacingLeft=4;spacingRight=4;overflow=hidden;rotatable=0;points=[[0,0.5],[1,0.5]];portConstraint=eastwest;whiteSpace=wrap;html=1;" parent="ZnUw0Ei_6aZEV_6Elj-X-9" vertex="1">
          <mxGeometry y="34" width="190" height="36" as="geometry" />
        </mxCell>
        <mxCell id="ZnUw0Ei_6aZEV_6Elj-X-35" value="+ MakePublicCourse(Course: course): Void" style="text;strokeColor=none;fillColor=none;align=left;verticalAlign=top;spacingLeft=4;spacingRight=4;overflow=hidden;rotatable=0;points=[[0,0.5],[1,0.5]];portConstraint=eastwest;whiteSpace=wrap;html=1;" parent="ZnUw0Ei_6aZEV_6Elj-X-9" vertex="1">
          <mxGeometry y="70" width="190" height="40" as="geometry" />
        </mxCell>
        <mxCell id="ZnUw0Ei_6aZEV_6Elj-X-13" value="StudyingPlatform" style="swimlane;fontStyle=1;align=center;verticalAlign=top;childLayout=stackLayout;horizontal=1;startSize=26;horizontalStack=0;resizeParent=1;resizeParentMax=0;resizeLast=0;collapsible=1;marginBottom=0;whiteSpace=wrap;html=1;" parent="WIyWlLk6GJQsqaUBKTNV-1" vertex="1">
          <mxGeometry x="19" y="270" width="190" height="140" as="geometry" />
        </mxCell>
        <mxCell id="ZnUw0Ei_6aZEV_6Elj-X-14" value="&lt;span style=&quot;text-align: center;&quot;&gt;+ PlatformName&lt;/span&gt;&lt;span style=&quot;text-align: center; background-color: initial;&quot;&gt;: string&lt;/span&gt;" style="text;strokeColor=none;fillColor=none;align=left;verticalAlign=top;spacingLeft=4;spacingRight=4;overflow=hidden;rotatable=0;points=[[0,0.5],[1,0.5]];portConstraint=eastwest;whiteSpace=wrap;html=1;" parent="ZnUw0Ei_6aZEV_6Elj-X-13" vertex="1">
          <mxGeometry y="26" width="190" height="26" as="geometry" />
        </mxCell>
        <mxCell id="ZnUw0Ei_6aZEV_6Elj-X-15" value="" style="line;strokeWidth=1;fillColor=none;align=left;verticalAlign=middle;spacingTop=-1;spacingLeft=3;spacingRight=3;rotatable=0;labelPosition=right;points=[];portConstraint=eastwest;strokeColor=inherit;" parent="ZnUw0Ei_6aZEV_6Elj-X-13" vertex="1">
          <mxGeometry y="52" width="190" height="8" as="geometry" />
        </mxCell>
        <mxCell id="ZnUw0Ei_6aZEV_6Elj-X-32" value="&lt;div style=&quot;&quot;&gt;&lt;span style=&quot;background-color: initial;&quot;&gt;+ RegisterNewUser(string: userType, string: name): User&lt;/span&gt;&lt;br&gt;&lt;/div&gt;" style="text;strokeColor=none;fillColor=none;align=left;verticalAlign=top;spacingLeft=4;spacingRight=4;overflow=hidden;rotatable=0;points=[[0,0.5],[1,0.5]];portConstraint=eastwest;whiteSpace=wrap;html=1;" parent="ZnUw0Ei_6aZEV_6Elj-X-13" vertex="1">
          <mxGeometry y="60" width="190" height="40" as="geometry" />
        </mxCell>
        <mxCell id="ZnUw0Ei_6aZEV_6Elj-X-62" value="&lt;div style=&quot;&quot;&gt;+ AddCourse(Course: course): Void&lt;/div&gt;" style="text;strokeColor=none;fillColor=none;align=left;verticalAlign=top;spacingLeft=4;spacingRight=4;overflow=hidden;rotatable=0;points=[[0,0.5],[1,0.5]];portConstraint=eastwest;whiteSpace=wrap;html=1;" parent="ZnUw0Ei_6aZEV_6Elj-X-13" vertex="1">
          <mxGeometry y="100" width="190" height="40" as="geometry" />
        </mxCell>
        <mxCell id="ZnUw0Ei_6aZEV_6Elj-X-17" value="&lt;b&gt;Test&lt;/b&gt;" style="swimlane;fontStyle=0;childLayout=stackLayout;horizontal=1;startSize=26;fillColor=none;horizontalStack=0;resizeParent=1;resizeParentMax=0;resizeLast=0;collapsible=1;marginBottom=0;whiteSpace=wrap;html=1;" parent="WIyWlLk6GJQsqaUBKTNV-1" vertex="1">
          <mxGeometry x="379" y="670" width="170" height="126" as="geometry" />
        </mxCell>
        <mxCell id="ZnUw0Ei_6aZEV_6Elj-X-18" value="+ TestName:string" style="text;strokeColor=none;fillColor=none;align=left;verticalAlign=top;spacingLeft=4;spacingRight=4;overflow=hidden;rotatable=0;points=[[0,0.5],[1,0.5]];portConstraint=eastwest;whiteSpace=wrap;html=1;" parent="ZnUw0Ei_6aZEV_6Elj-X-17" vertex="1">
          <mxGeometry y="26" width="170" height="26" as="geometry" />
        </mxCell>
        <mxCell id="ZnUw0Ei_6aZEV_6Elj-X-19" value="+ Id: Int" style="text;strokeColor=none;fillColor=none;align=left;verticalAlign=top;spacingLeft=4;spacingRight=4;overflow=hidden;rotatable=0;points=[[0,0.5],[1,0.5]];portConstraint=eastwest;whiteSpace=wrap;html=1;" parent="ZnUw0Ei_6aZEV_6Elj-X-17" vertex="1">
          <mxGeometry y="52" width="170" height="26" as="geometry" />
        </mxCell>
        <mxCell id="ZnUw0Ei_6aZEV_6Elj-X-20" value="+ IsTestFinished: bool" style="text;strokeColor=none;fillColor=none;align=left;verticalAlign=top;spacingLeft=4;spacingRight=4;overflow=hidden;rotatable=0;points=[[0,0.5],[1,0.5]];portConstraint=eastwest;whiteSpace=wrap;html=1;" parent="ZnUw0Ei_6aZEV_6Elj-X-17" vertex="1">
          <mxGeometry y="78" width="170" height="24" as="geometry" />
        </mxCell>
        <mxCell id="ZnUw0Ei_6aZEV_6Elj-X-38" value="+ TestResult: string" style="text;strokeColor=none;fillColor=none;align=left;verticalAlign=top;spacingLeft=4;spacingRight=4;overflow=hidden;rotatable=0;points=[[0,0.5],[1,0.5]];portConstraint=eastwest;whiteSpace=wrap;html=1;" parent="ZnUw0Ei_6aZEV_6Elj-X-17" vertex="1">
          <mxGeometry y="102" width="170" height="24" as="geometry" />
        </mxCell>
        <mxCell id="ZnUw0Ei_6aZEV_6Elj-X-21" value="&lt;b&gt;Certificate&lt;/b&gt;" style="swimlane;fontStyle=0;childLayout=stackLayout;horizontal=1;startSize=26;fillColor=none;horizontalStack=0;resizeParent=1;resizeParentMax=0;resizeLast=0;collapsible=1;marginBottom=0;whiteSpace=wrap;html=1;" parent="WIyWlLk6GJQsqaUBKTNV-1" vertex="1">
          <mxGeometry x="409" y="380" width="140" height="78" as="geometry" />
        </mxCell>
        <mxCell id="ZnUw0Ei_6aZEV_6Elj-X-22" value="+ CourseName: string" style="text;strokeColor=none;fillColor=none;align=left;verticalAlign=top;spacingLeft=4;spacingRight=4;overflow=hidden;rotatable=0;points=[[0,0.5],[1,0.5]];portConstraint=eastwest;whiteSpace=wrap;html=1;" parent="ZnUw0Ei_6aZEV_6Elj-X-21" vertex="1">
          <mxGeometry y="26" width="140" height="26" as="geometry" />
        </mxCell>
        <mxCell id="ZnUw0Ei_6aZEV_6Elj-X-23" value="+ AssignedTo: User" style="text;strokeColor=none;fillColor=none;align=left;verticalAlign=top;spacingLeft=4;spacingRight=4;overflow=hidden;rotatable=0;points=[[0,0.5],[1,0.5]];portConstraint=eastwest;whiteSpace=wrap;html=1;" parent="ZnUw0Ei_6aZEV_6Elj-X-21" vertex="1">
          <mxGeometry y="52" width="140" height="26" as="geometry" />
        </mxCell>
        <mxCell id="ZnUw0Ei_6aZEV_6Elj-X-41" value="&amp;lt;&amp;lt;abstract&lt;span style=&quot;background-color: initial;&quot;&gt;&amp;gt;&amp;gt;&lt;/span&gt;&lt;div&gt;&lt;span style=&quot;background-color: initial;&quot;&gt;&lt;b&gt;User&lt;/b&gt;&lt;/span&gt;&lt;/div&gt;" style="swimlane;fontStyle=0;childLayout=stackLayout;horizontal=1;startSize=30;fillColor=none;horizontalStack=0;resizeParent=1;resizeParentMax=0;resizeLast=0;collapsible=1;marginBottom=0;whiteSpace=wrap;html=1;" parent="WIyWlLk6GJQsqaUBKTNV-1" vertex="1">
          <mxGeometry x="630" y="380" width="140" height="82" as="geometry" />
        </mxCell>
        <mxCell id="ZnUw0Ei_6aZEV_6Elj-X-42" value="+ Name: string" style="text;strokeColor=none;fillColor=none;align=left;verticalAlign=top;spacingLeft=4;spacingRight=4;overflow=hidden;rotatable=0;points=[[0,0.5],[1,0.5]];portConstraint=eastwest;whiteSpace=wrap;html=1;" parent="ZnUw0Ei_6aZEV_6Elj-X-41" vertex="1">
          <mxGeometry y="30" width="140" height="26" as="geometry" />
        </mxCell>
        <mxCell id="ZnUw0Ei_6aZEV_6Elj-X-43" value="+ Id: Int" style="text;strokeColor=none;fillColor=none;align=left;verticalAlign=top;spacingLeft=4;spacingRight=4;overflow=hidden;rotatable=0;points=[[0,0.5],[1,0.5]];portConstraint=eastwest;whiteSpace=wrap;html=1;" parent="ZnUw0Ei_6aZEV_6Elj-X-41" vertex="1">
          <mxGeometry y="56" width="140" height="26" as="geometry" />
        </mxCell>
        <mxCell id="ZnUw0Ei_6aZEV_6Elj-X-45" value="" style="endArrow=block;endSize=16;endFill=0;html=1;rounded=0;" parent="WIyWlLk6GJQsqaUBKTNV-1" source="ZnUw0Ei_6aZEV_6Elj-X-5" target="ZnUw0Ei_6aZEV_6Elj-X-41" edge="1">
          <mxGeometry width="160" relative="1" as="geometry">
            <mxPoint x="363" y="1110" as="sourcePoint" />
            <mxPoint x="389" y="1050" as="targetPoint" />
          </mxGeometry>
        </mxCell>
        <mxCell id="ZnUw0Ei_6aZEV_6Elj-X-46" value="" style="endArrow=block;endSize=16;endFill=0;html=1;rounded=0;" parent="WIyWlLk6GJQsqaUBKTNV-1" source="ZnUw0Ei_6aZEV_6Elj-X-9" target="ZnUw0Ei_6aZEV_6Elj-X-41" edge="1">
          <mxGeometry width="160" relative="1" as="geometry">
            <mxPoint x="599" y="1090" as="sourcePoint" />
            <mxPoint x="625" y="1030" as="targetPoint" />
          </mxGeometry>
        </mxCell>
        <mxCell id="ZnUw0Ei_6aZEV_6Elj-X-47" value="" style="endArrow=open;endFill=1;endSize=12;html=1;rounded=0;" parent="WIyWlLk6GJQsqaUBKTNV-1" source="ZnUw0Ei_6aZEV_6Elj-X-21" target="ZnUw0Ei_6aZEV_6Elj-X-5" edge="1">
          <mxGeometry width="160" relative="1" as="geometry">
            <mxPoint x="259" y="960" as="sourcePoint" />
            <mxPoint x="419" y="960" as="targetPoint" />
          </mxGeometry>
        </mxCell>
        <mxCell id="ZnUw0Ei_6aZEV_6Elj-X-51" value="&lt;span style=&quot;font-size: 12px;&quot;&gt;1..*&lt;/span&gt;" style="edgeLabel;html=1;align=center;verticalAlign=middle;resizable=0;points=[];" parent="ZnUw0Ei_6aZEV_6Elj-X-47" vertex="1" connectable="0">
          <mxGeometry x="-0.7099" y="-2" relative="1" as="geometry">
            <mxPoint x="17" as="offset" />
          </mxGeometry>
        </mxCell>
        <mxCell id="ZnUw0Ei_6aZEV_6Elj-X-52" value="&lt;font style=&quot;font-size: 12px;&quot;&gt;1&lt;/font&gt;" style="edgeLabel;html=1;align=center;verticalAlign=middle;resizable=0;points=[];" parent="ZnUw0Ei_6aZEV_6Elj-X-47" vertex="1" connectable="0">
          <mxGeometry x="0.5068" y="-1" relative="1" as="geometry">
            <mxPoint x="8" as="offset" />
          </mxGeometry>
        </mxCell>
        <mxCell id="ZnUw0Ei_6aZEV_6Elj-X-49" value="" style="endArrow=open;endFill=1;endSize=12;html=1;rounded=0;" parent="WIyWlLk6GJQsqaUBKTNV-1" source="ZnUw0Ei_6aZEV_6Elj-X-5" target="ZnUw0Ei_6aZEV_6Elj-X-17" edge="1">
          <mxGeometry width="160" relative="1" as="geometry">
            <mxPoint x="330" y="850" as="sourcePoint" />
            <mxPoint x="399" y="710" as="targetPoint" />
          </mxGeometry>
        </mxCell>
        <mxCell id="ZnUw0Ei_6aZEV_6Elj-X-58" value="Benutzt" style="edgeLabel;html=1;align=center;verticalAlign=middle;resizable=0;points=[];" parent="ZnUw0Ei_6aZEV_6Elj-X-49" vertex="1" connectable="0">
          <mxGeometry x="-0.1703" y="1" relative="1" as="geometry">
            <mxPoint y="-4" as="offset" />
          </mxGeometry>
        </mxCell>
        <mxCell id="ZnUw0Ei_6aZEV_6Elj-X-60" value="&lt;font style=&quot;font-size: 12px;&quot;&gt;1&lt;/font&gt;" style="edgeLabel;html=1;align=center;verticalAlign=middle;resizable=0;points=[];" parent="ZnUw0Ei_6aZEV_6Elj-X-49" vertex="1" connectable="0">
          <mxGeometry x="0.6632" relative="1" as="geometry">
            <mxPoint x="12" y="-56" as="offset" />
          </mxGeometry>
        </mxCell>
        <mxCell id="ZnUw0Ei_6aZEV_6Elj-X-61" value="1..*" style="edgeLabel;html=1;align=center;verticalAlign=middle;resizable=0;points=[];" parent="ZnUw0Ei_6aZEV_6Elj-X-49" vertex="1" connectable="0">
          <mxGeometry x="-0.6547" relative="1" as="geometry">
            <mxPoint x="15" y="46" as="offset" />
          </mxGeometry>
        </mxCell>
        <mxCell id="ZnUw0Ei_6aZEV_6Elj-X-55" value="&lt;font style=&quot;font-size: 12px;&quot;&gt;1..*&lt;/font&gt;" style="endArrow=diamondThin;endFill=1;endSize=24;html=1;rounded=0;" parent="WIyWlLk6GJQsqaUBKTNV-1" source="ZnUw0Ei_6aZEV_6Elj-X-17" target="ZnUw0Ei_6aZEV_6Elj-X-1" edge="1">
          <mxGeometry x="-0.7621" y="10" width="160" relative="1" as="geometry">
            <mxPoint x="320.1111111111111" y="830" as="sourcePoint" />
            <mxPoint x="236.1604938271605" y="730" as="targetPoint" />
            <Array as="points">
              <mxPoint x="300" y="760" />
            </Array>
            <mxPoint as="offset" />
          </mxGeometry>
        </mxCell>
        <mxCell id="ZnUw0Ei_6aZEV_6Elj-X-56" value="&lt;font style=&quot;font-size: 12px;&quot;&gt;Enthält&lt;/font&gt;" style="edgeLabel;html=1;align=center;verticalAlign=middle;resizable=0;points=[];" parent="ZnUw0Ei_6aZEV_6Elj-X-55" vertex="1" connectable="0">
          <mxGeometry x="0.2129" y="-4" relative="1" as="geometry">
            <mxPoint x="13" y="-7" as="offset" />
          </mxGeometry>
        </mxCell>
        <mxCell id="ZnUw0Ei_6aZEV_6Elj-X-64" value="&lt;b&gt;EnrollmentManager&lt;/b&gt;" style="swimlane;fontStyle=0;childLayout=stackLayout;horizontal=1;startSize=26;fillColor=none;horizontalStack=0;resizeParent=1;resizeParentMax=0;resizeLast=0;collapsible=1;marginBottom=0;whiteSpace=wrap;html=1;" parent="WIyWlLk6GJQsqaUBKTNV-1" vertex="1">
          <mxGeometry x="19" y="460" width="280" height="140" as="geometry">
            <mxRectangle x="130" y="240" width="100" height="30" as="alternateBounds" />
          </mxGeometry>
        </mxCell>
        <mxCell id="ZnUw0Ei_6aZEV_6Elj-X-65" value="+ EnrollStudent(student: Student, course: Course): void" style="text;strokeColor=none;fillColor=none;align=left;verticalAlign=top;spacingLeft=4;spacingRight=4;overflow=hidden;rotatable=0;points=[[0,0.5],[1,0.5]];portConstraint=eastwest;whiteSpace=wrap;html=1;" parent="ZnUw0Ei_6aZEV_6Elj-X-64" vertex="1">
          <mxGeometry y="26" width="280" height="34" as="geometry" />
        </mxCell>
        <mxCell id="ZnUw0Ei_6aZEV_6Elj-X-66" value="+ GetCoursesOfStudent(student: Student): List&amp;lt;Course&amp;gt;" style="text;strokeColor=none;fillColor=none;align=left;verticalAlign=top;spacingLeft=4;spacingRight=4;overflow=hidden;rotatable=0;points=[[0,0.5],[1,0.5]];portConstraint=eastwest;whiteSpace=wrap;html=1;" parent="ZnUw0Ei_6aZEV_6Elj-X-64" vertex="1">
          <mxGeometry y="60" width="280" height="40" as="geometry" />
        </mxCell>
        <mxCell id="ZnUw0Ei_6aZEV_6Elj-X-75" value="&lt;div&gt;&amp;nbsp;+GetStudentsInCourse(course: Course): List&amp;lt;Student&amp;gt;&lt;/div&gt;" style="text;strokeColor=none;fillColor=none;align=left;verticalAlign=top;spacingLeft=4;spacingRight=4;overflow=hidden;rotatable=0;points=[[0,0.5],[1,0.5]];portConstraint=eastwest;whiteSpace=wrap;html=1;" parent="ZnUw0Ei_6aZEV_6Elj-X-64" vertex="1">
          <mxGeometry y="100" width="280" height="40" as="geometry" />
        </mxCell>
        <mxCell id="ZnUw0Ei_6aZEV_6Elj-X-70" value="" style="endArrow=open;endFill=1;endSize=12;html=1;rounded=0;" parent="WIyWlLk6GJQsqaUBKTNV-1" source="ZnUw0Ei_6aZEV_6Elj-X-64" target="ZnUw0Ei_6aZEV_6Elj-X-1" edge="1">
          <mxGeometry width="160" relative="1" as="geometry">
            <mxPoint x="129" y="600" as="sourcePoint" />
            <mxPoint x="49" y="680" as="targetPoint" />
          </mxGeometry>
        </mxCell>
        <mxCell id="ZnUw0Ei_6aZEV_6Elj-X-74" value="&lt;font style=&quot;font-size: 12px;&quot;&gt;1&lt;/font&gt;" style="edgeLabel;html=1;align=center;verticalAlign=middle;resizable=0;points=[];" parent="ZnUw0Ei_6aZEV_6Elj-X-70" vertex="1" connectable="0">
          <mxGeometry x="-0.7119" y="-2" relative="1" as="geometry">
            <mxPoint x="9" as="offset" />
          </mxGeometry>
        </mxCell>
        <mxCell id="ZnUw0Ei_6aZEV_6Elj-X-77" value="&lt;font style=&quot;font-size: 12px;&quot;&gt;1..*&lt;/font&gt;" style="edgeLabel;html=1;align=center;verticalAlign=middle;resizable=0;points=[];" parent="ZnUw0Ei_6aZEV_6Elj-X-70" vertex="1" connectable="0">
          <mxGeometry x="0.481" relative="1" as="geometry">
            <mxPoint x="19" y="3" as="offset" />
          </mxGeometry>
        </mxCell>
        <mxCell id="ZnUw0Ei_6aZEV_6Elj-X-79" value="" style="endArrow=diamondThin;endFill=1;endSize=24;html=1;rounded=0;" parent="WIyWlLk6GJQsqaUBKTNV-1" source="ZnUw0Ei_6aZEV_6Elj-X-64" target="ZnUw0Ei_6aZEV_6Elj-X-13" edge="1">
          <mxGeometry width="160" relative="1" as="geometry">
            <mxPoint x="329" y="560" as="sourcePoint" />
            <mxPoint x="489" y="560" as="targetPoint" />
          </mxGeometry>
        </mxCell>
        <mxCell id="ZnUw0Ei_6aZEV_6Elj-X-80" value="&lt;font style=&quot;font-size: 12px;&quot;&gt;1&lt;/font&gt;" style="edgeLabel;html=1;align=center;verticalAlign=middle;resizable=0;points=[];" parent="ZnUw0Ei_6aZEV_6Elj-X-79" vertex="1" connectable="0">
          <mxGeometry x="-0.6909" y="-2" relative="1" as="geometry">
            <mxPoint x="-10" y="1" as="offset" />
          </mxGeometry>
        </mxCell>
        <mxCell id="ZnUw0Ei_6aZEV_6Elj-X-81" value="" style="endArrow=open;endFill=1;endSize=12;html=1;rounded=0;" parent="WIyWlLk6GJQsqaUBKTNV-1" source="ZnUw0Ei_6aZEV_6Elj-X-64" target="ZnUw0Ei_6aZEV_6Elj-X-5" edge="1">
          <mxGeometry width="160" relative="1" as="geometry">
            <mxPoint x="329" y="560" as="sourcePoint" />
            <mxPoint x="489" y="560" as="targetPoint" />
          </mxGeometry>
        </mxCell>
        <mxCell id="ZnUw0Ei_6aZEV_6Elj-X-82" value="1" style="edgeLabel;html=1;align=center;verticalAlign=middle;resizable=0;points=[];" parent="ZnUw0Ei_6aZEV_6Elj-X-81" vertex="1" connectable="0">
          <mxGeometry x="-0.8013" y="1" relative="1" as="geometry">
            <mxPoint y="-8" as="offset" />
          </mxGeometry>
        </mxCell>
        <mxCell id="ZnUw0Ei_6aZEV_6Elj-X-84" value="0..*" style="edgeLabel;html=1;align=center;verticalAlign=middle;resizable=0;points=[];" parent="ZnUw0Ei_6aZEV_6Elj-X-81" vertex="1" connectable="0">
          <mxGeometry x="0.7446" y="-2" relative="1" as="geometry">
            <mxPoint x="-9" y="7" as="offset" />
          </mxGeometry>
        </mxCell>
        <mxCell id="8_o9UTNNQwO5jUjnxQf3-2" value="" style="endArrow=diamondThin;endFill=1;endSize=24;html=1;rounded=0;" edge="1" parent="WIyWlLk6GJQsqaUBKTNV-1" source="ZnUw0Ei_6aZEV_6Elj-X-21" target="ZnUw0Ei_6aZEV_6Elj-X-13">
          <mxGeometry width="160" relative="1" as="geometry">
            <mxPoint x="330" y="520" as="sourcePoint" />
            <mxPoint x="490" y="520" as="targetPoint" />
          </mxGeometry>
        </mxCell>
        <mxCell id="8_o9UTNNQwO5jUjnxQf3-3" value="0..*" style="edgeLabel;html=1;align=center;verticalAlign=middle;resizable=0;points=[];" vertex="1" connectable="0" parent="8_o9UTNNQwO5jUjnxQf3-2">
          <mxGeometry x="-0.7628" y="1" relative="1" as="geometry">
            <mxPoint x="5" y="6" as="offset" />
          </mxGeometry>
        </mxCell>
        <mxCell id="8_o9UTNNQwO5jUjnxQf3-4" value="&lt;span style=&quot;font-size: 12px;&quot;&gt;Enthält&lt;/span&gt;" style="edgeLabel;html=1;align=center;verticalAlign=middle;resizable=0;points=[];" vertex="1" connectable="0" parent="8_o9UTNNQwO5jUjnxQf3-2">
          <mxGeometry x="0.012" y="-1" relative="1" as="geometry">
            <mxPoint as="offset" />
          </mxGeometry>
        </mxCell>
      </root>
    </mxGraphModel>
  </diagram>
</mxfile>
